<svg 
          width="32.375003814697266" 
          height="32.375003814697266" fill="none" 
          xmlns="http://www.w3.org/2000/svg">
          <path d="M 16.187501907348633 0 C 20.480694293196652 -5.134782093914883e-16 24.598047949448304 1.7054638785969347 27.63379339143129 4.741209320579921 C 30.669538833414276 7.776954762562908 32.375003814697266 11.894309521500613 32.375003814697266 16.187501907348633 C 32.375003814697266 20.480694293196652 30.669538833414276 24.598047949448304 27.63379339143129 27.63379339143129 C 24.598047949448304 30.669538833414276 20.480694293196652 32.375003814697266 16.187501907348633 32.375003814697266 C 11.894309521500613 32.375003814697266 7.776954762562908 30.669538833414276 4.741209320579921 27.63379339143129 C 1.7054638785969347 24.598047949448304 1.2836955234787207e-15 20.480694293196652 0 16.187501907348633 C -5.134782093914883e-16 11.894309521500613 1.7054638785969347 7.776954762562908 4.741209320579921 4.741209320579921 C 7.776954762562908 1.7054638785969347 11.894309521500613 3.594347465740418e-15 16.187501907348633 0 L 16.187501907348633 0 Z M 14.171001166922647 19.381063777991585 L 10.575063640185753 15.782813918590495 C 10.446150689264204 15.653900967668946 10.293108813703943 15.551641541116524 10.124675930428566 15.481874352997044 C 9.956243047153189 15.412107164877565 9.775717746743931 15.376198434602493 9.593407300983149 15.376198434602495 C 9.411096855222366 15.376198434602493 9.230571554813107 15.412107164877565 9.06213867153773 15.481874352997044 C 8.893705788262352 15.551641541116524 8.740663912702091 15.653900967668946 8.611750961780542 15.782813918590495 C 8.351399512586198 16.043165367784837 8.205135477792544 16.39627879989697 8.205135477792544 16.76447136047916 C 8.205135477792544 17.13266392106135 8.351399512586198 17.485775147801363 8.611750961780542 17.746126596995705 L 13.19050154539517 22.324878283296393 C 13.319051230178397 22.454437201494454 13.47197611763966 22.557268366460722 13.640458104903571 22.627442105453678 C 13.808940092167482 22.697615844446634 13.989646146942949 22.733743246843268 14.172157884597775 22.733743246843268 C 14.354669622252601 22.733743246843268 14.535375677028068 22.697615844446634 14.703857664291979 22.627442105453678 C 14.87233965155589 22.557268366460722 15.025264539017154 22.454437201494454 15.153814223800381 22.324878283296393 L 24.63506512042451 12.841313951322004 C 24.76570032051859 12.712935260410424 24.8696262976755 12.55996289714551 24.940846580499837 12.391219556056319 C 25.012066863324176 12.222476214967127 25.049171759491212 12.04130127740432 25.0500235271294 11.858145829533507 C 25.05087529476759 11.674990381662694 25.015456416890487 11.493479245458401 24.945808667762062 11.32408078824431 C 24.876160918633637 11.154682331030218 24.773663962305108 11.000749467905404 24.644228441568757 10.87116131129733 C 24.514792920832406 10.741573154689256 24.36098028494688 10.638893630592834 24.19166402953254 10.56904628236576 C 24.0223477741182 10.499198934138684 23.840877712969576 10.463565880089366 23.65772138639581 10.464201789259148 C 23.474565059822044 10.46483769842893 23.293346910749328 10.501729943231814 23.12451974829024 10.572751307521555 C 22.95569258583115 10.643772671811297 22.802598444674675 10.747517468172623 22.674065877369557 10.878001272916794 L 14.171001166922647 19.381063777991585 Z" fill="rgb(20.45311689376831,245.43749392032623,164.44309204816818)"/>
        </svg>